<?xml version="1.0" encoding="utf-8"?>
<!-- Generator: Adobe Illustrator 24.3.0, SVG Export Plug-In . SVG Version: 6.00 Build 0)  -->
<svg version="1.1" id="Layer_1" xmlns="http://www.w3.org/2000/svg" xmlns:xlink="http://www.w3.org/1999/xlink" x="0px" y="0px"
	 viewBox="0 0 300 300" enable-background="new 0 0 300 300" xml:space="preserve">
<g>
	<g>
		<g>
			<path fill="#AA6148" d="M176.03,242.008c-20.238,20.241-48.254,25.048-62.568,10.739c-14.3-14.313-9.502-42.327,10.748-62.565
				c20.241-20.242,48.248-25.051,62.56-10.742C201.081,193.752,196.28,221.764,176.03,242.008z"/>
		</g>
		<g>
			<path fill="#BC715C" d="M134.414,200.387c17.77-17.771,41.521-23.638,56.74-15.124c-1.184-2.117-2.637-4.075-4.385-5.823
				c-14.312-14.309-42.318-9.5-62.56,10.742c-20.25,20.238-25.048,48.252-10.748,62.565c1.748,1.748,3.708,3.201,5.826,4.385
				C110.778,241.911,116.636,218.155,134.414,200.387z"/>
		</g>
		<g>
			<g>
				<path fill="#BC715C" d="M119.607,252.939c-0.844,0-1.695-0.009-2.548-0.025c-2.504-0.046-4.497-2.112-4.453-4.616
					c0.048-2.477,2.067-4.453,4.533-4.453c0.029,0,0.059,0,0.086,0.002c14.383,0.266,26.802,0.492,30.109-29.86
					c4.089-37.604,35.657-34.867,35.991-34.848c2.492,0.251,4.308,2.475,4.057,4.967c-0.248,2.486-2.424,4.333-4.943,4.062
					c-2.354-0.198-23.034-1.24-26.088,26.802C152.647,248.962,137.084,252.939,119.607,252.939z"/>
			</g>
		</g>
		<g>
			<g>
				<path fill="#FFDA88" d="M214.091,162.23c-2.067,0-4.149-0.647-5.92-1.987c-50.926-38.49-102.365-0.398-102.882-0.009
					c-4.323,3.282-10.494,2.433-13.774-1.898c-3.281-4.33-2.433-10.499,1.899-13.779c0.626-0.479,63.947-47.37,126.616-0.007
					c4.335,3.275,5.191,9.444,1.916,13.777C220.011,160.883,217.07,162.23,214.091,162.23z"/>
			</g>
		</g>
		<g>
			<path fill="#FFE2A9" d="M93.413,153.527c0.626-0.479,63.947-47.37,126.616-0.007c1.222,0.924,2.135,2.092,2.79,3.37
				c2.156-4.176,1.087-9.412-2.79-12.341c-62.669-47.363-125.99-0.472-126.616,0.007c-3.871,2.932-4.934,8.16-2.782,12.332
				C91.284,155.613,92.193,154.449,93.413,153.527z"/>
		</g>
		<g>
			<g>
				<path fill="#FFDA88" d="M240.967,125.646c-1.704,0-3.428-0.442-4.999-1.372c-85.88-50.79-160.061-2.39-163.177-0.303
					c-4.509,3.015-10.615,1.816-13.641-2.681c-3.024-4.5-1.843-10.596,2.651-13.631c3.52-2.378,87.351-57.59,184.182-0.314
					c4.674,2.764,6.221,8.796,3.457,13.472C247.604,123.92,244.327,125.646,240.967,125.646z"/>
			</g>
		</g>
		<g>
			<path fill="#FFE2A9" d="M61.801,115.974c3.52-2.378,87.351-57.59,184.182-0.314c1.754,1.036,3.068,2.535,3.877,4.249
				c2.088-4.525,0.505-9.974-3.877-12.564c-96.832-57.276-180.663-2.064-184.182,0.314c-4.069,2.748-5.386,7.992-3.363,12.3
				C59.164,118.404,60.274,117.006,61.801,115.974z"/>
		</g>
		<g>
			<g>
				<path fill="#FFDA88" d="M260.605,87.365c-1.624,0-3.274-0.403-4.795-1.255C147.306,25.368,45.49,85.336,44.472,85.95
					c-4.662,2.802-10.704,1.305-13.5-3.341c-2.808-4.652-1.314-10.696,3.34-13.503c4.547-2.742,112.729-66.427,231.11-0.159
					c4.739,2.652,6.428,8.646,3.78,13.385C267.397,85.552,264.051,87.365,260.605,87.365z"/>
			</g>
		</g>
		<g>
			<path fill="#FFE2A9" d="M34.311,78.933c4.547-2.742,112.729-66.427,231.11-0.159c1.606,0.898,2.829,2.198,3.682,3.685
				c0.03-0.047,0.071-0.08,0.098-0.127c2.648-4.739,0.959-10.733-3.78-13.385C147.04,2.679,38.858,66.365,34.311,69.107
				c-4.606,2.779-6.103,8.73-3.407,13.363C31.71,81.07,32.829,79.827,34.311,78.933z"/>
		</g>
	</g>
	<g>
		<g>
			<path fill="#161616" d="M135.652,265.58c-9.652,0.002-18.413-3.167-24.874-9.624c-16.054-16.07-11.232-47.013,10.748-68.982
				c21.98-21.98,52.922-26.792,68.973-10.741c13.255,13.253,12.596,37.064-1.594,57.904c-1.414,2.073-4.234,2.609-6.304,1.196
				c-2.07-1.41-2.604-4.231-1.196-6.301c11.705-17.185,12.806-36.259,2.681-46.386c-12.517-12.515-37.703-7.698-56.146,10.742
				c-18.443,18.434-23.265,43.624-10.745,56.154c11.12,11.118,33.009,8.513,50.911-6.066c1.943-1.581,4.795-1.29,6.381,0.652
				c1.583,1.943,1.29,4.8-0.653,6.381C161.597,260.473,147.906,265.58,135.652,265.58z"/>
		</g>
		<g>
			<path fill="#161616" d="M120.129,252.939c-0.844,0-1.695-0.009-2.548-0.025c-2.504-0.046-4.497-2.113-4.453-4.617
				c0.047-2.477,2.067-4.453,4.532-4.453c0.03,0,0.059,0,0.086,0.001c14.386,0.266,26.805,0.492,30.109-29.859
				c4.089-37.604,35.657-34.87,35.991-34.848c2.492,0.251,4.308,2.474,4.057,4.967c-0.248,2.485-2.465,4.311-4.943,4.061
				c-2.35-0.198-23.037-1.24-26.087,26.802C153.17,248.962,137.606,252.939,120.129,252.939z"/>
		</g>
		<g>
			<g>
				<path fill="#161616" d="M99.383,166.77c-0.659,0-1.323-0.046-1.987-0.137c-3.806-0.523-7.178-2.496-9.496-5.559
					c-2.318-3.059-3.307-6.839-2.784-10.64c0.523-3.803,2.498-7.175,5.56-9.493c0.638-0.484,66.348-49.693,132.087-0.01
					c3.062,2.313,5.04,5.683,5.569,9.486c0.529,3.802-0.455,7.583-2.77,10.645c-2.74,3.626-6.921,5.705-11.471,5.705
					c-3.15,0-6.145-1.005-8.657-2.906c-47.84-36.159-95.42-1.493-97.422,0.001C105.507,165.763,102.496,166.77,99.383,166.77z
					 M159.238,128.028c-35.628,0-62.683,19.839-63.088,20.143c-1.128,0.855-1.854,2.096-2.049,3.499
					c-0.192,1.403,0.174,2.796,1.028,3.926c0.856,1.129,2.099,1.857,3.502,2.051c1.406,0.199,2.793-0.173,3.915-1.026
					c0.552-0.419,54.847-40.445,108.359,0.003c2.271,1.718,5.714,1.225,7.423-1.034c0.853-1.128,1.216-2.523,1.022-3.926
					c-0.198-1.403-0.924-2.644-2.055-3.497C197.313,133.066,177.185,128.028,159.238,128.028z"/>
			</g>
		</g>
		<g>
			<g>
				<path fill="#161616" d="M240.967,130.181c-2.569,0-5.096-0.692-7.311-2.005c-83.491-49.374-155.322-2.458-158.34-0.437
					c-6.582,4.398-15.519,2.64-19.928-3.917c-4.411-6.564-2.672-15.5,3.874-19.922c3.617-2.445,89.73-59.199,189.031-0.459
					c6.818,4.032,9.085,12.862,5.052,19.683C250.77,127.478,246.025,130.181,240.967,130.181z M154.472,96.613
					c24.927,0,53.672,5.936,83.804,23.758c2.442,1.442,5.829,0.552,7.261-1.865c1.488-2.514,0.652-5.771-1.863-7.258
					c-94.407-55.843-175.909-2.144-179.334,0.168c-2.412,1.63-3.053,4.925-1.426,7.345c1.624,2.412,4.928,3.059,7.355,1.439
					C72.384,118.785,106.299,96.613,154.472,96.613z"/>
			</g>
		</g>
		<g>
			<path fill="#161616" d="M260.605,91.9c-2.445,0-4.872-0.633-7.013-1.834C147.835,30.862,47.808,89.243,46.807,89.838
				c-6.791,4.088-15.641,1.89-19.721-4.89c-1.981-3.282-2.566-7.144-1.645-10.87c0.921-3.726,3.239-6.871,6.528-8.855
				c1.488-0.898,15.201-9.015,37.376-16.692c2.374-0.812,4.952,0.436,5.77,2.802c0.821,2.367-0.434,4.95-2.799,5.77
				c-21.298,7.373-34.254,15.037-35.66,15.887c-1.214,0.732-2.07,1.891-2.41,3.266c-0.34,1.373-0.124,2.798,0.608,4.01
				c1.506,2.502,4.766,3.307,7.281,1.798c1.03-0.625,105.158-61.903,215.889,0.089c2.489,1.398,5.843,0.421,7.219-2.037
				c1.423-2.547,0.511-5.783-2.037-7.209C196.673,35.658,133.378,40.536,91.999,51.176c-2.433,0.617-4.899-0.834-5.525-3.263
				c-0.623-2.426,0.839-4.897,3.263-5.522c42.989-11.055,108.746-16.113,177.899,22.597c6.912,3.867,9.39,12.639,5.525,19.556
				C270.618,89.083,265.808,91.9,260.605,91.9z"/>
		</g>
	</g>
</g>
</svg>
